<svg xmlns="http://www.w3.org/2000/svg" xmlns:xlink="http://www.w3.org/1999/xlink" width="236.282" height="152.96" stroke-linecap="round" font-family="Segoe UI" font-size="12"><rect width="236.282" height="152.96" fill="#1E1E1E"/><g transform="translate(1192,777.02)"><g id="A-&gt;C"><path fill="none" stroke="#A0A0A0" stroke-width="1" d="M -1122,-733.245150116053 L -1034.68289409908,-741.016935220983"/><path fill="#A0A0A0" stroke="#A0A0A0" stroke-linejoin="round" stroke-width="1" d="M -1025.71833333333,-741.814838897618 L -1036.03358026267,-744.912528486134 C -1034.80110205118,-742.34501829739 -1034.56468614699,-739.688852144576 -1035.32433255011,-736.944030027691 z"/><text x="-1084.892" y="-744.141" fill="#A0A0A0">e1</text></g><g id="A-&gt;B"><path fill="none" stroke="#A0A0A0" stroke-width="1" d="M -1132.03708843308,-718.039989013672 L -1083.47971523734,-675.91752499577"/><path fill="#A0A0A0" stroke="#A0A0A0" stroke-linejoin="round" stroke-width="1" d="M -1076.68124490025,-670.02 L -1081.61397861001,-679.594347922895 C -1082.60600783056,-676.92470578645 -1084.35342264412,-674.91034420509 -1086.85622305069,-673.551263178816 z"/><text x="-1106.448" y="-701.5" fill="#A0A0A0">e2</text></g><g id="B-&gt;C"><path fill="none" stroke="#A0A0A0" stroke-width="1" d="M -1052.6174137931,-670.02 L -1014.9860971613,-723.690894212573"/><path fill="#A0A0A0" stroke="#A0A0A0" stroke-linejoin="round" stroke-width="1" d="M -1009.81925287356,-731.06 L -1018.83534909879,-725.168479919631 C -1016.07781653721,-724.456352625571 -1013.89437778538,-722.925435799575 -1012.2850328433,-720.575729441643 z"/><text x="-1048.186" y="-701.014" fill="#A0A0A0">e2</text></g><g id="A"><rect width="50" height="25.96" x="-1172" y="-744" fill="#FFF" stroke="#A5A6A9" stroke-width="1" rx="3" ry="3"/><text x="-1151" y="-726.05" fill="#3D3D3D">A</text></g><g id="C"><rect width="50" height="25.96" x="-1025.718" y="-757.02" fill="#FFF" stroke="#A5A6A9" stroke-width="1" rx="3" ry="3"/><text x="-1004.718" y="-739.07" fill="#3D3D3D">C</text></g><g id="B"><rect width="50" height="25.96" x="-1086.718" y="-670.02" fill="#FFF" stroke="#A5A6A9" stroke-width="1" rx="3" ry="3"/><text x="-1065.718" y="-652.07" fill="#3D3D3D">B</text></g></g></svg>