<svg xmlns="http://www.w3.org/2000/svg" xmlns:xlink="http://www.w3.org/1999/xlink" width="881.025" height="181.255" stroke-linecap="round" font-family="Segoe UI" font-size="12"><g transform="translate(20,20)"><g id="CartService-&gt;MockCheckoutService"><path fill="none" stroke="#A0A0A0" stroke-width="1" d="M 360.713333333333,76.4715769017096 L 302.75,85.0393750000002 C 238.696796723239,94.5073417587106 184.030699769982,103.975308517421 138.751709140228,113.443275276131"/><path fill="#A0A0A0" stroke="#A0A0A0" stroke-linejoin="round" stroke-width="1" d="M 129.944262543909,115.295 L 140.553303083761,117.151948794066 C 139.02603872895,114.74808217929 138.477379551507,112.138468372973 138.907325551433,109.323107375115 z"/></g><g id="CartService-&gt;MockInventoryService"><path fill="none" stroke="#A0A0A0" stroke-width="1" d="M 365.124799427555,83.6075000000001 L 361.25,85.0393750000001 C 336.514444505398,94.180034842148 310.421238776418,103.320694684296 282.970382813059,112.461354526444"/><path fill="#A0A0A0" stroke="#A0A0A0" stroke-linejoin="round" stroke-width="1" d="M 274.428108330804,115.295 L 285.178922410446,115.94307146594 C 283.390182142475,113.726876671963 282.550583483643,111.195832380924 282.660126433951,108.349938592824 z"/></g><g id="CartService-&gt;MockPaymentService"><path fill="none" stroke="#A0A0A0" stroke-width="1" d="M 417.812600286222,83.6075000000001 L 419.75,85.0393750000001 C 430.797649748309,93.2043671649445 432.456794499594,101.369359329889 424.727434253854,109.534351494833"/><path fill="#A0A0A0" stroke="#A0A0A0" stroke-linejoin="round" stroke-width="1" d="M 417.812600286222,115.295 L 428.056037363666,111.967538979874 C 425.580863662027,110.55877134189 423.874004845682,108.509931647777 422.935460914628,105.821019897534 z"/></g><g id="CartService-&gt;MockRecommendationService"><path fill="none" stroke="#A0A0A0" stroke-width="1" d="M 439.786666666667,77.9325961271368 L 478.25,85.0393750000001 C 522.937520191351,93.2961821161248 552.239080840878,101.552989232249 566.154681948581,109.809796348374"/><path fill="#A0A0A0" stroke="#A0A0A0" stroke-linejoin="round" stroke-width="1" d="M 573.289984387875,115.295 L 567.799738856049,106.029083747396 C 566.967304711785,108.752714505516 565.342059185377,110.866878191232 562.924002276826,112.371574804546 z"/></g><g id="CartService-&gt;MockShippingService1"><path fill="none" stroke="#A0A0A0" stroke-width="1" d="M 439.786666666667,74.8018406440783 L 536.75,85.0393750000001 C 624.561036607849,94.3105961224377 685.679366179008,103.581817244876 720.104988713479,112.853038367313"/><path fill="#A0A0A0" stroke="#A0A0A0" stroke-linejoin="round" stroke-width="1" d="M 728.767368489527,115.295 L 720.22781835289,108.731762729882 C 720.46676080721,111.569722844936 719.743216619748,114.136353889691 718.057185790502,116.431655864147 z"/></g><g id="MockCheckoutService-&gt;CartService"><path fill="none" stroke="#A0A0A0" stroke-width="1" d="M 94.8190619714645,115.295 L 97.75,113.863125 C 117.416666666667,104.255208333334 172.75,94.6472916666669 263.75,85.0393750000002 L 351.763081335789,75.7468216917493"/><path fill="#A0A0A0" stroke="#A0A0A0" stroke-linejoin="round" stroke-width="1" d="M 360.713333333333,74.8018406440782 L 350.348617314875,71.8739298092488 C 351.623084143542,74.4208584328539 351.903078528037,77.0727849506448 351.18860046836,79.8297093626213 z"/></g><g id="MockFrontEnd-&gt;CartService"><path fill="none" stroke="#A0A0A0" stroke-width="1" d="M 400.25,25.96 L 400.25,48.6475"/><path fill="#A0A0A0" stroke="#A0A0A0" stroke-linejoin="round" stroke-width="1" d="M 400.25,57.6475 L 404.25,47.6475 C 401.583333333333,48.6475 398.916666666667,48.6475 396.25,47.6475 z"/></g><g id="MockInventoryService-&gt;CartService"><path fill="none" stroke="#A0A0A0" stroke-width="1" d="M 239.302907758359,115.295 L 239.75,113.863125 C 242.75,104.255208333334 270.25,94.6472916666669 322.25,85.0393750000001 L 351.863134355345,79.5678264014432"/><path fill="#A0A0A0" stroke="#A0A0A0" stroke-linejoin="round" stroke-width="1" d="M 360.713333333333,77.9325961271368 L 350.153009902543,75.8160968861489 C 351.62087801841,78.2566858121115 352.105390692279,80.8789669907749 351.606547924149,83.6829404221389 z"/></g><g id="MockPaymentService-&gt;CartService"><path fill="none" stroke="#A0A0A0" stroke-width="1" d="M 382.687399713778,115.295 L 380.75,113.863125 C 369.702350251691,105.698132835056 368.043205500406,97.5331406701114 375.772565746146,89.3681485051669"/><path fill="#A0A0A0" stroke="#A0A0A0" stroke-linejoin="round" stroke-width="1" d="M 382.687399713778,83.6075000000001 L 372.443962636335,86.9349610201268 C 374.919136337973,88.3437286581103 376.625995154319,90.3925683522235 377.564539085372,93.0814801024664 z"/></g><g id="MockRecommendationService-&gt;CartService"><path fill="none" stroke="#A0A0A0" stroke-width="1" d="M 538.16478381543,115.295 L 532.75,113.863125 C 498.522785169479,104.812146252558 468.880609807861,95.7611675051151 443.823473915147,86.7101887576725"/><path fill="#A0A0A0" stroke="#A0A0A0" stroke-linejoin="round" stroke-width="1" d="M 435.375200572445,83.6075000000001 L 443.383198172037,90.8097201052816 C 443.363816321418,87.9617848084432 444.283131508876,85.4585927069018 446.141143734413,83.3001438006574 z"/></g><g id="MockShippingService1-&gt;CartService"><path fill="none" stroke="#A0A0A0" stroke-width="1" d="M 707.572057535156,117.538081876419 L 684.75,113.863125 C 625.083333333333,104.255208333333 562.75,94.6472916666668 497.75,85.0393750000001 L 448.689928496211,77.7876045589367"/><path fill="#A0A0A0" stroke="#A0A0A0" stroke-linejoin="round" stroke-width="1" d="M 439.786666666667,76.4715769017095 L 449.094278629615,81.8908351117592 C 448.494961435881,79.1066063114617 448.884895556541,76.4686028064116 450.264080991594,73.9768245966091 z"/></g><g id="CartService"><rect width="79.073" height="25.96" x="360.713" y="57.648" fill="#FFF" stroke="#A5A6A9" stroke-width="1" rx="3" ry="3"/><text x="370.713" y="75.598" fill="#3D3D3D">CartService</text></g><g id="MockCheckoutService"><rect width="136.5" height="25.96" y="115.295" fill="#55BF6F" stroke="#A5A6A9" stroke-width="1" rx="3" ry="3"/><text x="10" y="133.245" fill="#000">MockCheckoutService</text></g><g id="MockFrontEnd"><rect width="97.16" height="25.96" x="351.67" fill="#55BF6F" stroke="#A5A6A9" stroke-width="1" rx="3" ry="3"/><text x="361.67" y="17.95" fill="#000">MockFrontEnd</text></g><g id="MockInventoryService"><rect width="136.483" height="25.96" x="167.008" y="115.295" fill="#55BF6F" stroke="#A5A6A9" stroke-width="1" rx="3" ry="3"/><text x="177.008" y="133.245" fill="#000">MockInventoryService</text></g><g id="MockPaymentService"><rect width="132.303" height="25.96" x="334.098" y="115.295" fill="#55BF6F" stroke="#A5A6A9" stroke-width="1" rx="3" ry="3"/><text x="344.098" y="133.245" fill="#000">MockPaymentService</text></g><g id="MockRecommendationService"><rect width="179.993" height="25.96" x="497.253" y="115.295" fill="#55BF6F" stroke="#A5A6A9" stroke-width="1" rx="3" ry="3"/><text x="507.253" y="133.245" fill="#000">MockRecommendationService</text></g><g id="MockShippingService1"><rect width="133.55" height="25.96" x="707.475" y="115.295" fill="#55BF6F" stroke="#A5A6A9" stroke-width="1" rx="3" ry="3"/><text x="717.475" y="133.245" fill="#000">MockShippingService</text></g></g></svg>