<svg xmlns="http://www.w3.org/2000/svg" xmlns:xlink="http://www.w3.org/1999/xlink" width="604.85" height="476.098" stroke-linecap="round" font-family="Segoe UI" font-size="12"><rect width="604.85" height="476.098" fill="#1E1E1E"/><g transform="translate(5.5283605448404,-13.7824173863873)"><g id="AzureServiceBus-&gt;Raft.AzureClient.dll"><path fill="none" stroke="#A0A0A0" stroke-width="1" d="M 302.406780336556,267.662959594727 L 303.301692016112,257.627120115408 A 288.548566538123,288.548566538123 3.14159265358979 0 0 303.873542508406,250.103484450775 A 1307.86021581546,1307.86021581546 3.14159265358979 0 0 304.325285820091,242.571068192928 L 304.377959770171,241.648234627021"/><path fill="#A0A0A0" stroke="#A0A0A0" stroke-linejoin="round" stroke-width="1" d="M 304.890831438539,232.662859695957 L 300.32747405988,242.418666655642 C 303.046793113717,241.572253639114 305.709126426625,241.724215614927 308.314473998603,242.87455258308 z"/></g><g id="AzureServiceBus-&gt;Raft.AzureClient.dll(Server)"><path fill="none" stroke="#A0A0A0" stroke-width="1" d="M 346.564065901732,293.622959594727 L 370.917336753948,302.814730179125 A 209.552030433548,209.552030433548 3.14159265358979 0 0 379.60700794306,305.87800535692 A 80.7255101790146,80.7255101790146 0 0 1 388.172179418789,309.239117388139 L 390.021275713651,310.089328520951"/><path fill="#A0A0A0" stroke="#A0A0A0" stroke-linejoin="round" stroke-width="1" d="M 398.198316192327,313.849116947193 L 390.783732738795,306.037334038624 C 390.578281406428,308.877915116703 389.464270020875,311.3007419252 387.441698582136,313.305814464114 z"/></g><g id="AzureServiceBus-&gt;Raft.AzureClient.dll(Server2)"><path fill="none" stroke="#A0A0A0" stroke-width="1" d="M 262.762283938669,293.622959594727 L 240.150865346416,302.579304419062 A 1964.74009136341,1964.74009136341 3.14159265358979 0 0 225.364381120155,308.505666441539 A 1964.74009136367,1964.74009136367 3.14159265358979 0 0 210.626432833429,314.551719938878 L 203.907630570763,317.339896938195"/><path fill="#A0A0A0" stroke="#A0A0A0" stroke-linejoin="round" stroke-width="1" d="M 195.594972788493,320.789494102336 L 206.364413508412,320.651122934299 C 204.418682002488,318.571401794827 203.396579139038,316.108392081562 203.298104918064,313.262093794503 z"/></g><g id="Raft.AzureClient.dll-&gt;AzureServiceBus"><path fill="none" stroke="#A0A0A0" stroke-width="1.5" d="M 310.890962607566,232.662859695957 L 310.354645431218,242.242400554928 A 819.745731849628,819.745731849628 0 0 1 309.849838400286,250.510410416807 A 426.808072695275,426.808072695275 0 0 1 309.229439550937,258.695788754289"/><path fill="#A0A0A0" stroke="#A0A0A0" stroke-linejoin="round" stroke-width="1" d="M 308.461424500048,267.662959594727 L 313.300183819008,258.040776461302 C 310.557909305076,258.809568761828 307.900969796798,258.58200874675 305.329365294174,257.358096416067 z"/></g><g id="Raft.AzureClient.dll(Server)-&gt;AzureServiceBus"><path fill="none" stroke="#A0A0A0" stroke-width="1" d="M 398.198316192327,320.550266911076 L 386.10385635196,314.871349600257 A 73.2430107324767,73.2430107324767 3.14159265358979 0 0 377.521492971177,311.483579690962 A 192.681285813688,192.681285813688 0 0 1 368.798618546496,308.428199085016 L 337.992863856407,296.801036905905"/><path fill="#A0A0A0" stroke="#A0A0A0" stroke-linejoin="round" stroke-width="1" d="M 329.57266049757,293.622959594727 L 337.515963202421,300.896469211075 C 337.522037588084,298.048474440548 338.46369012473,295.553599371263 340.340920812357,293.41184400322 z"/></g><g id="Raft.AzureClient.dll(Server2)-&gt;AzureServiceBus"><path fill="none" stroke="#A0A0A0" stroke-width="1" d="M 195.594972788493,327.285611398921 L 212.926164276189,320.093491793725 A 1958.74009136101,1958.74009136101 0 0 1 227.619105241027,314.065901970612 A 1958.74009136105,1958.74009136105 0 0 1 242.360433924452,308.157638103861 L 270.687556741911,296.937312461781"/><path fill="#A0A0A0" stroke="#A0A0A0" stroke-linejoin="round" stroke-width="1" d="M 279.055057269108,293.622959594727 L 268.284788742421,293.586684768255 C 270.196541502347,295.697682754048 271.178571981474,298.176942169514 271.230880179802,301.024463014653 z"/></g><g id="Raft.AzureClient.dll"><rect width="181.123" height="198.88" x="211" y="33.782" fill="#EEE" stroke="#A5A6A9" stroke-width="1" rx="5" ry="5"/><text x="246" y="51.732" fill="#000">Raft.Azure.dll (Client)</text><rect width="171.123" height="165.92" x="216" y="61.742" fill="#1E1E1E" stroke="#A5A6A9" stroke-width="1"/><g id="AzureMessageReceiver-&gt;Client"><path fill="none" stroke="#A0A0A0" stroke-width="1" d="M 301.647849896207,99.7425274658203 L 301.793986356229,121.742747984522"/><path fill="#A0A0A0" stroke="#A0A0A0" stroke-linejoin="round" stroke-width="1" d="M 301.853767535434,130.742549438477 L 305.787255760297,120.716200632213 C 303.127290275333,121.733891513529 300.460682437124,121.751604455515 297.787432245671,120.769339458174 z"/></g><g id="Client-&gt;AzureClusterManager1"><path fill="none" stroke="#A0A0A0" stroke-width="1" d="M 301.852237775747,156.702549438477 L 301.710267236255,177.703005946714"/><path fill="#A0A0A0" stroke="#A0A0A0" stroke-linejoin="round" stroke-width="1" d="M 301.649425432261,186.702800292969 L 305.716936035035,176.730069598905 C 303.043570102367,177.712019547305 300.376964370143,177.693992346122 297.717118838363,176.675987995355 z"/></g><g id="AzureClusterManager1"><rect width="134.44" height="25.96" x="234.342" y="186.703" fill="#FFF" stroke="#A5A6A9" stroke-width="1" rx="3" ry="3"/><text x="244.342" y="204.653" fill="#3D3D3D">AzureClusterManager</text></g><g id="AzureMessageReceiver"><rect width="141.123" height="25.96" x="231" y="73.783" fill="#FFF" stroke="#A5A6A9" stroke-width="1" rx="3" ry="3"/><text x="241" y="91.733" fill="#3D3D3D">AzureMessageReceiver</text></g><g id="Client"><rect width="71.133" height="25.96" x="266.373" y="130.743" fill="#FFF" stroke="#A5A6A9" stroke-width="1" rx="3" ry="3"/><text x="276.373" y="148.693" fill="#3D3D3D">RunClient</text></g></g><g id="Raft.AzureClient.dll(Server)"><rect width="181.123" height="197.88" x="398.198" y="272" fill="#EEE" stroke="#A5A6A9" stroke-width="1" rx="5" ry="5"/><text x="427.198" y="289.95" fill="#000">Raft.Azure.dll (Server 1)</text><rect width="171.123" height="164.92" x="403.198" y="299.96" fill="#1E1E1E" stroke="#A5A6A9" stroke-width="1"/><g id="AzureMessageReceiver1-&gt;Server"><path fill="none" stroke="#A0A0A0" stroke-width="1" d="M 488.759982858993,337.960204620362 L 488.759982858993,358.960204620362"/><path fill="#A0A0A0" stroke="#A0A0A0" stroke-linejoin="round" stroke-width="1" d="M 488.759982858993,367.960204620362 L 492.759982858993,357.960204620362 C 490.093316192327,358.960204620362 487.42664952566,358.960204620362 484.759982858993,357.960204620362 z"/></g><g id="Server-&gt;AzureClusterManager"><path fill="none" stroke="#A0A0A0" stroke-width="1" d="M 488.759982858993,393.920204620362 L 488.759982858993,414.920204620362"/><path fill="#A0A0A0" stroke="#A0A0A0" stroke-linejoin="round" stroke-width="1" d="M 488.759982858993,423.920204620362 L 492.759982858993,413.920204620362 C 490.093316192327,414.920204620362 487.42664952566,414.920204620362 484.759982858993,413.920204620362 z"/></g><g id="AzureClusterManager"><rect width="134.44" height="25.96" x="421.54" y="423.92" fill="#FFF" stroke="#A5A6A9" stroke-width="1" rx="3" ry="3"/><text x="431.54" y="441.87" fill="#3D3D3D">AzureClusterManager</text></g><g id="AzureMessageReceiver1"><rect width="141.123" height="25.96" x="418.198" y="312" fill="#FFF" stroke="#A5A6A9" stroke-width="1" rx="3" ry="3"/><text x="428.198" y="329.95" fill="#3D3D3D">AzureMessageReceiver</text></g><g id="Server"><rect width="53.02" height="25.96" x="462.25" y="367.96" fill="#FFF" stroke="#A5A6A9" stroke-width="1" rx="3" ry="3"/><text x="472.25" y="385.91" fill="#3D3D3D">Server</text></g></g><g id="Raft.AzureClient.dll(Server2)"><rect width="181.123" height="197.88" x="14.472" y="266.623" fill="#EEE" stroke="#A5A6A9" stroke-width="1" rx="5" ry="5"/><text x="43.472" y="284.573" fill="#000">Raft.Azure.dll (Server 2)</text><rect width="171.123" height="164.92" x="19.472" y="294.583" fill="#1E1E1E" stroke="#A5A6A9" stroke-width="1"/><g id="AzureMessageReceiver2-&gt;Server1"><path fill="none" stroke="#A0A0A0" stroke-width="1" d="M 105.033306121826,332.583258540359 L 105.033306121826,353.583258540359"/><path fill="#A0A0A0" stroke="#A0A0A0" stroke-linejoin="round" stroke-width="1" d="M 105.033306121826,362.583258540359 L 109.033306121826,352.583258540359 C 106.366639455159,353.583258540359 103.699972788493,353.583258540359 101.033306121826,352.583258540359 z"/></g><g id="Server1-&gt;AzureClusterManager2"><path fill="none" stroke="#A0A0A0" stroke-width="1" d="M 105.033306121826,388.543258540359 L 105.033306121826,409.543258540359"/><path fill="#A0A0A0" stroke="#A0A0A0" stroke-linejoin="round" stroke-width="1" d="M 105.033306121826,418.543258540359 L 109.033306121826,408.543258540359 C 106.366639455159,409.543258540359 103.699972788493,409.543258540359 101.033306121826,408.543258540359 z"/></g><g id="AzureClusterManager2"><rect width="134.44" height="25.96" x="37.813" y="418.543" fill="#FFF" stroke="#A5A6A9" stroke-width="1" rx="3" ry="3"/><text x="47.813" y="436.493" fill="#3D3D3D">AzureClusterManager</text></g><g id="AzureMessageReceiver2"><rect width="141.123" height="25.96" x="34.472" y="306.623" fill="#FFF" stroke="#A5A6A9" stroke-width="1" rx="3" ry="3"/><text x="44.472" y="324.573" fill="#3D3D3D">AzureMessageReceiver</text></g><g id="Server1"><rect width="53.02" height="25.96" x="78.523" y="362.583" fill="#FFF" stroke="#A5A6A9" stroke-width="1" rx="3" ry="3"/><text x="88.523" y="380.533" fill="#3D3D3D">Server</text></g></g><g id="AzureServiceBus"><rect width="113.04" height="25.96" x="247.158" y="267.663" fill="#FFF" stroke="#A5A6A9" stroke-width="1" rx="3" ry="3"/><text x="257.158" y="285.613" fill="#3D3D3D">Azure Service Bus</text></g></g></svg>