<svg xmlns="http://www.w3.org/2000/svg" width="100%" stroke-linecap="round" font-family="Segoe UI" font-size="12" videbox="0,0,213,137" style="max-width:400"><rect width="213" height="137.96" fill="#FFF"/><g transform="translate(220,23)"><g id="A-&gt;C"><path fill="none" stroke="#A0A0A0" stroke-width="1" d="M -150,12.3702435377168 L -85.9973242166037,10.8092029031469"/><path fill="#A0A0A0" stroke="#A0A0A0" stroke-linejoin="round" stroke-width="1" d="M -77.0000000000001,10.5897560045196 L -87.094558862283,6.83477512894833 C -86.0298348682522,9.47626598216861 -85.9648135649552,12.1421398241253 -86.899494952392,14.8323966548183 z"/><text x="-124.421" y="4.58" fill="#A0A0A0">e1</text></g><g id="A-&gt;B"><path fill="none" stroke="#A0A0A0" stroke-width="1" d="M -159.950724737522,25.9599995422363 L -116.864511918851,63.1218583448817"/><path fill="#A0A0A0" stroke="#A0A0A0" stroke-linejoin="round" stroke-width="1" d="M -110.049275262478,69 L -115.00925303395,59.4397374248141 C -115.993676118092,62.1121936550487 -117.735347719609,64.1315230347146 -120.2342678385,65.4977255638118 z"/><text x="-137.101" y="40.016" fill="#A0A0A0">e2</text></g><g id="B-&gt;C"><path fill="none" stroke="#A0A0A0" stroke-width="1" d="M -87.24805550627,68.9999995422363 L -64.3666145865901,30.686889408686"/><path fill="#A0A0A0" stroke="#A0A0A0" stroke-linejoin="round" stroke-width="1" d="M -59.75194449373,22.96 L -68.313528778546,29.4944681906021 C -65.5113389434324,30.0032345801141 -63.2218902297477,31.3705442372578 -61.4451826374919,33.5963971620333 z"/><text x="-90.271" y="45.808" fill="#A0A0A0">e2</text></g><g id="A"><rect width="50" height="25.96" x="-200" fill="#FFF" stroke="#A5A6A9" stroke-width="1" rx="3" ry="3"/><text x="-179" y="17.95" fill="#3D3D3D">A</text></g><g id="C"><rect width="50" height="25.96" x="-77" y="-3" fill="#FFF" stroke="#A5A6A9" stroke-width="1" rx="3" ry="3"/><text x="-56" y="14.95" fill="#3D3D3D">C</text></g><g id="B"><rect width="50" height="25.96" x="-120" y="69" fill="#FFF" stroke="#A5A6A9" stroke-width="1" rx="3" ry="3"/><text x="-99" y="86.95" fill="#3D3D3D">B</text></g></g></svg>