<svg xmlns="http://www.w3.org/2000/svg" xmlns:xlink="http://www.w3.org/1999/xlink" width="357.81" height="243.608" stroke-linecap="round" font-family="Segoe UI" font-size="12"><rect width="357.81" height="243.608" fill="#FFF"/><g transform="translate(20,20)"><g id="ConsoleApp14.Test+MyActor-&gt;ConsoleApp14.Test+MyTestActor"><path fill="none" stroke="#A0A0A0" stroke-width="1" d="M 133.619058382037,85.9599999999999 C 136.354194596442,93.61828969311 137.106233487294,101.27657938622 135.875175054592,108.93486907933"/><path fill="#A0A0A0" stroke="#A0A0A0" stroke-linejoin="round" stroke-width="1" d="M 133.619058382037,117.6475 L 139.998135094063,108.969517498169 C 137.165935190988,109.269108586375 134.584414918197,108.600629572285 132.25357427569,106.964080455897 z"/></g><g id="ConsoleApp14.Test+MyTestActor-&gt;ConsoleApp14.Test+MyActor"><path fill="none" stroke="#A0A0A0" stroke-width="1" d="M 80.7776082846298,117.6475 C 78.042472070225,109.98921030689 77.2904331793732,102.33092061378 78.5214916120743,94.6726309206701"/><path fill="#A0A0A0" stroke="#A0A0A0" stroke-linejoin="round" stroke-width="1" d="M 80.7776082846299,85.96 L 74.3985315726036,94.637982501831 C 77.2307314756787,94.3383914136249 79.8122517484699,95.0068704277154 82.1430923909771,96.6434195441026 z"/></g><g id="ConsoleApp14.Test+MyActor"><rect width="193.843" height="85.96" x="10.277" fill="#57AC56" stroke="#A5A6A9" stroke-width="1" rx="5" ry="5"/><text x="30.277" y="17.95" fill="#FFF">ConsoleApp14.Test+MyActor</text><rect width="183.843" height="53" x="15.277" y="27.96" fill="#FFF" stroke="#A5A6A9" stroke-width="1"/><g id="ConsoleApp14.Test+MyActor.MyActor"><rect width="65.137" height="25.96" x="74.63" y="40" fill="#FFF" stroke="#A5A6A9" stroke-width="1" rx="3" ry="3"/><text x="84.63" y="57.95" fill="#3D3D3D">MyActor</text></g></g><g id="ConsoleApp14.Test+MyTestActor"><rect width="214.397" height="85.96" y="117.648" fill="#57AC56" stroke="#A5A6A9" stroke-width="1" rx="5" ry="5"/><text x="20" y="135.598" fill="#FFF">ConsoleApp14.Test+MyTestActor</text><rect width="204.397" height="53" x="5" y="145.608" fill="#FFF" stroke="#A5A6A9" stroke-width="1"/><g id="ConsoleApp14.Test+MyTestActor.MyTestActor"><rect width="85.69" height="25.96" x="64.353" y="157.648" fill="#FFF" stroke="#A5A6A9" stroke-width="1" rx="3" ry="3"/><text x="74.353" y="175.598" fill="#3D3D3D">MyTestActor</text></g></g></g></svg>